<mxfile>
  <diagram>
    <mxGraphModel dx="-4000" dy="-4000" grid="1" gridSize="10" guides="1" tooltips="1" connect="1" arrows="1" fold="1" pageScale="1" pageWidth="4000" pageHeight="4000" math="0" shadow="0">
      <root>
        <mxCell id="0"/>
        <mxCell id="1" parent="0"/>
        <object label="Webex EQ CODEC, CS-CODEC-EQ-NR++" type="matrix" id="1989764453650288694">
          <mxCell id="5117073500299354247" value="Webex EQ CODEC, CS-CODEC-EQ-NR++" style="rounded=0;whiteSpace=wrap;html=1;" parent="1" connectable="" edge="" vertex="1" source="" target="">
            <mxGeometry x="-4100" y="3000" width="200" height="1200" relative="" as="geometry"/>
          </mxCell>
        </object>
        <object label="Webex EQ CODEC, CS-CODEC-EQ-NR++" type="matrix_label" id="5621570749698747460">
          <mxCell id="6685944531005830624" value="Webex EQ CODEC, CS-CODEC-EQ-NR++" style="rounded=0;whiteSpace=wrap;html=1;" parent="1" connectable="" edge="" vertex="1" source="" target="">
            <mxGeometry x="-4100" y="3000" width="200" height="80" relative="" as="geometry"/>
          </mxCell>
        </object>
        <object label="&amp;nbsp;&amp;nbsp;&amp;nbsp;HDMI 1" type="input" id="9824824854646039434">
          <mxCell id="9990510334223737930" value="&amp;nbsp;&amp;nbsp;&amp;nbsp;HDMI 1" style="text;html=1;strokeColor=none;fillColor=none;align=left;verticalAlign=middle;whiteSpace=wrap;rounded=0;" parent="1" connectable="" edge="" vertex="1" source="" target="">
            <mxGeometry x="-4100" y="3145" width="60" height="30" relative="" as="geometry"/>
          </mxCell>
        </object>
        <object label="&amp;nbsp;&amp;nbsp;&amp;nbsp;HDMI 2" type="input" id="5368241761497945561">
          <mxCell id="235731951472173752" value="&amp;nbsp;&amp;nbsp;&amp;nbsp;HDMI 2" style="text;html=1;strokeColor=none;fillColor=none;align=left;verticalAlign=middle;whiteSpace=wrap;rounded=0;" parent="1" connectable="" edge="" vertex="1" source="" target="">
            <mxGeometry x="-4100" y="3245" width="60" height="30" relative="" as="geometry"/>
          </mxCell>
        </object>
        <object label="&amp;nbsp;&amp;nbsp;&amp;nbsp;HDMI 3" type="input" id="8217626129028234597">
          <mxCell id="9920729572558025021" value="&amp;nbsp;&amp;nbsp;&amp;nbsp;HDMI 3" style="text;html=1;strokeColor=none;fillColor=none;align=left;verticalAlign=middle;whiteSpace=wrap;rounded=0;" parent="1" connectable="" edge="" vertex="1" source="" target="">
            <mxGeometry x="-4100" y="3345" width="60" height="30" relative="" as="geometry"/>
          </mxCell>
        </object>
        <object label="&amp;nbsp;&amp;nbsp;&amp;nbsp;HDMI 4" type="input" id="8146514729333459261">
          <mxCell id="8316690758741182948" value="&amp;nbsp;&amp;nbsp;&amp;nbsp;HDMI 4" style="text;html=1;strokeColor=none;fillColor=none;align=left;verticalAlign=middle;whiteSpace=wrap;rounded=0;" parent="1" connectable="" edge="" vertex="1" source="" target="">
            <mxGeometry x="-4100" y="3445" width="60" height="30" relative="" as="geometry"/>
          </mxCell>
        </object>
        <object label="&amp;nbsp;&amp;nbsp;&amp;nbsp;HDMI 5" type="input" id="8544849071840607316">
          <mxCell id="2251279193643246449" value="&amp;nbsp;&amp;nbsp;&amp;nbsp;HDMI 5" style="text;html=1;strokeColor=none;fillColor=none;align=left;verticalAlign=middle;whiteSpace=wrap;rounded=0;" parent="1" connectable="" edge="" vertex="1" source="" target="">
            <mxGeometry x="-4100" y="3545" width="60" height="30" relative="" as="geometry"/>
          </mxCell>
        </object>
        <object label="&amp;nbsp;&amp;nbsp;&amp;nbsp;HDMI 6" type="input" id="5335151928967729696">
          <mxCell id="4294880812685733280" value="&amp;nbsp;&amp;nbsp;&amp;nbsp;HDMI 6" style="text;html=1;strokeColor=none;fillColor=none;align=left;verticalAlign=middle;whiteSpace=wrap;rounded=0;" parent="1" connectable="" edge="" vertex="1" source="" target="">
            <mxGeometry x="-4100" y="3645" width="60" height="30" relative="" as="geometry"/>
          </mxCell>
        </object>
        <object label="&amp;nbsp;&amp;nbsp;&amp;nbsp;DTP 7" type="input" id="9856128663734642984">
          <mxCell id="6626338701304776044" value="&amp;nbsp;&amp;nbsp;&amp;nbsp;DTP 7" style="text;html=1;strokeColor=none;fillColor=none;align=left;verticalAlign=middle;whiteSpace=wrap;rounded=0;" parent="1" connectable="" edge="" vertex="1" source="" target="">
            <mxGeometry x="-4100" y="3745" width="60" height="30" relative="" as="geometry"/>
          </mxCell>
        </object>
        <object label="&amp;nbsp;&amp;nbsp;&amp;nbsp;DTP 8" type="input" id="6496028213105510946">
          <mxCell id="7925184643556268901" value="&amp;nbsp;&amp;nbsp;&amp;nbsp;DTP 8" style="text;html=1;strokeColor=none;fillColor=none;align=left;verticalAlign=middle;whiteSpace=wrap;rounded=0;" parent="1" connectable="" edge="" vertex="1" source="" target="">
            <mxGeometry x="-4100" y="3845" width="60" height="30" relative="" as="geometry"/>
          </mxCell>
        </object>
        <object label="&amp;nbsp;&amp;nbsp;&amp;nbsp;DTP 9" type="input" id="1304031974526740024">
          <mxCell id="9380000793582471169" value="&amp;nbsp;&amp;nbsp;&amp;nbsp;DTP 9" style="text;html=1;strokeColor=none;fillColor=none;align=left;verticalAlign=middle;whiteSpace=wrap;rounded=0;" parent="1" connectable="" edge="" vertex="1" source="" target="">
            <mxGeometry x="-4100" y="3945" width="60" height="30" relative="" as="geometry"/>
          </mxCell>
        </object>
        <object label="&amp;nbsp;&amp;nbsp;&amp;nbsp;DTP 10" type="input" id="9154702868587025149">
          <mxCell id="7905391494509357230" value="&amp;nbsp;&amp;nbsp;&amp;nbsp;DTP 10" style="text;html=1;strokeColor=none;fillColor=none;align=left;verticalAlign=middle;whiteSpace=wrap;rounded=0;" parent="1" connectable="" edge="" vertex="1" source="" target="">
            <mxGeometry x="-4100" y="4045" width="60" height="30" relative="" as="geometry"/>
          </mxCell>
        </object>
        <object label="&amp;nbsp;&amp;nbsp;&amp;nbsp;HDMI 1" type="output" id="365326990207944729">
          <mxCell id="3573555031776797612" value="&amp;nbsp;&amp;nbsp;&amp;nbsp;HDMI 1" style="text;html=1;strokeColor=none;fillColor=none;align=left;verticalAlign=middle;whiteSpace=wrap;rounded=0;" parent="1" connectable="" edge="" vertex="1" source="" target="">
            <mxGeometry x="-3960" y="3145" width="60" height="30" relative="" as="geometry"/>
          </mxCell>
        </object>
        <object label="&amp;nbsp;&amp;nbsp;&amp;nbsp;HDMI 2" type="output" id="861061838668161853">
          <mxCell id="1259385333265577958" value="&amp;nbsp;&amp;nbsp;&amp;nbsp;HDMI 2" style="text;html=1;strokeColor=none;fillColor=none;align=left;verticalAlign=middle;whiteSpace=wrap;rounded=0;" parent="1" connectable="" edge="" vertex="1" source="" target="">
            <mxGeometry x="-3960" y="3245" width="60" height="30" relative="" as="geometry"/>
          </mxCell>
        </object>
        <object label="&amp;nbsp;&amp;nbsp;&amp;nbsp;HDMI 3" type="output" id="2981299035439603138">
          <mxCell id="1004490491646744975" value="&amp;nbsp;&amp;nbsp;&amp;nbsp;HDMI 3" style="text;html=1;strokeColor=none;fillColor=none;align=left;verticalAlign=middle;whiteSpace=wrap;rounded=0;" parent="1" connectable="" edge="" vertex="1" source="" target="">
            <mxGeometry x="-3960" y="3345" width="60" height="30" relative="" as="geometry"/>
          </mxCell>
        </object>
        <object label="&amp;nbsp;&amp;nbsp;&amp;nbsp;HDMI 4" type="output" id="6115071686331218135">
          <mxCell id="9605934844594945926" value="&amp;nbsp;&amp;nbsp;&amp;nbsp;HDMI 4" style="text;html=1;strokeColor=none;fillColor=none;align=left;verticalAlign=middle;whiteSpace=wrap;rounded=0;" parent="1" connectable="" edge="" vertex="1" source="" target="">
            <mxGeometry x="-3960" y="3445" width="60" height="30" relative="" as="geometry"/>
          </mxCell>
        </object>
        <object label="&amp;nbsp;&amp;nbsp;&amp;nbsp;HDMI 5a" type="output" id="7155198451273111723">
          <mxCell id="8695005622606997986" value="&amp;nbsp;&amp;nbsp;&amp;nbsp;HDMI 5a" style="text;html=1;strokeColor=none;fillColor=none;align=left;verticalAlign=middle;whiteSpace=wrap;rounded=0;" parent="1" connectable="" edge="" vertex="1" source="" target="">
            <mxGeometry x="-3960" y="3545" width="60" height="30" relative="" as="geometry"/>
          </mxCell>
        </object>
        <object label="&amp;nbsp;&amp;nbsp;&amp;nbsp;HDMI 6a" type="output" id="4989728223438494723">
          <mxCell id="8647394244823002934" value="&amp;nbsp;&amp;nbsp;&amp;nbsp;HDMI 6a" style="text;html=1;strokeColor=none;fillColor=none;align=left;verticalAlign=middle;whiteSpace=wrap;rounded=0;" parent="1" connectable="" edge="" vertex="1" source="" target="">
            <mxGeometry x="-3960" y="3645" width="60" height="30" relative="" as="geometry"/>
          </mxCell>
        </object>
        <object label="&amp;nbsp;&amp;nbsp;&amp;nbsp;DTP 5b" type="output" id="6458264975308030103">
          <mxCell id="8697895821345966469" value="&amp;nbsp;&amp;nbsp;&amp;nbsp;DTP 5b" style="text;html=1;strokeColor=none;fillColor=none;align=left;verticalAlign=middle;whiteSpace=wrap;rounded=0;" parent="1" connectable="" edge="" vertex="1" source="" target="">
            <mxGeometry x="-3960" y="3745" width="60" height="30" relative="" as="geometry"/>
          </mxCell>
        </object>
        <object label="&amp;nbsp;&amp;nbsp;&amp;nbsp;DTP 6b" type="output" id="1866465909392123860">
          <mxCell id="1806749545686654804" value="&amp;nbsp;&amp;nbsp;&amp;nbsp;DTP 6b" style="text;html=1;strokeColor=none;fillColor=none;align=left;verticalAlign=middle;whiteSpace=wrap;rounded=0;" parent="1" connectable="" edge="" vertex="1" source="" target="">
            <mxGeometry x="-3960" y="3845" width="60" height="30" relative="" as="geometry"/>
          </mxCell>
        </object>
        <object label="&amp;nbsp;&amp;nbsp;&amp;nbsp;DTP 7" type="output" id="4373924121737983487">
          <mxCell id="7627870700108480364" value="&amp;nbsp;&amp;nbsp;&amp;nbsp;DTP 7" style="text;html=1;strokeColor=none;fillColor=none;align=left;verticalAlign=middle;whiteSpace=wrap;rounded=0;" parent="1" connectable="" edge="" vertex="1" source="" target="">
            <mxGeometry x="-3960" y="3945" width="60" height="30" relative="" as="geometry"/>
          </mxCell>
        </object>
        <object label="&amp;nbsp;&amp;nbsp;&amp;nbsp;DTP 8" type="output" id="3369788335051220822">
          <mxCell id="1604323244876954962" value="&amp;nbsp;&amp;nbsp;&amp;nbsp;DTP 8" style="text;html=1;strokeColor=none;fillColor=none;align=left;verticalAlign=middle;whiteSpace=wrap;rounded=0;" parent="1" connectable="" edge="" vertex="1" source="" target="">
            <mxGeometry x="-3960" y="4045" width="60" height="30" relative="" as="geometry"/>
          </mxCell>
        </object>
        <object label="" type="DTP" id="6801368557484424629">
          <mxCell id="6225747496063064046" value="" style="rounded=0;whiteSpace=wrap;html=1;" parent="1" connectable="" edge="" vertex="1" source="" target="">
            <mxGeometry x="-4500" y="3100" width="160" height="80" relative="" as="geometry"/>
          </mxCell>
        </object>
        <object label="Webex EQ CODEC, CS-CODEC-EQ-NR++" type="text-box" id="8541870629147647225">
          <mxCell id="2330163944986341772" value="Webex EQ CODEC, CS-CODEC-EQ-NR++" style="rounded=0;whiteSpace=wrap;html=1;" parent="1" connectable="" edge="" vertex="1" source="" target="">
            <mxGeometry x="-4500" y="3100" width="160" height="40" relative="" as="geometry"/>
          </mxCell>
        </object>
        <object label="" type="DTP" id="3063376383834022668">
          <mxCell id="4786037428907796744" value="" style="rounded=0;whiteSpace=wrap;html=1;" parent="1" connectable="" edge="" vertex="1" source="" target="">
            <mxGeometry x="-4500" y="3200" width="160" height="80" relative="" as="geometry"/>
          </mxCell>
        </object>
        <object label="Webex EQ CODEC, CS-CODEC-EQ-NR++" type="text-box" id="294675459717437873">
          <mxCell id="2769780851094354375" value="Webex EQ CODEC, CS-CODEC-EQ-NR++" style="rounded=0;whiteSpace=wrap;html=1;" parent="1" connectable="" edge="" vertex="1" source="" target="">
            <mxGeometry x="-4500" y="3200" width="160" height="40" relative="" as="geometry"/>
          </mxCell>
        </object>
        <object label="" type="DTP" id="1946087768340633430">
          <mxCell id="7700595644792538748" value="" style="rounded=0;whiteSpace=wrap;html=1;" parent="1" connectable="" edge="" vertex="1" source="" target="">
            <mxGeometry x="-4500" y="3300" width="160" height="80" relative="" as="geometry"/>
          </mxCell>
        </object>
        <object label="DA HD 4K Plus, 60-1607-01" type="text-box" id="8322694748202570548">
          <mxCell id="2449068660320412934" value="DA HD 4K Plus, 60-1607-01" style="rounded=0;whiteSpace=wrap;html=1;" parent="1" connectable="" edge="" vertex="1" source="" target="">
            <mxGeometry x="-4500" y="3300" width="160" height="40" relative="" as="geometry"/>
          </mxCell>
        </object>
        <object label="" type="DTP" id="9272717222656568053">
          <mxCell id="989593543429820457" value="" style="rounded=0;whiteSpace=wrap;html=1;" parent="1" connectable="" edge="" vertex="1" source="" target="">
            <mxGeometry x="-4500" y="3400" width="160" height="80" relative="" as="geometry"/>
          </mxCell>
        </object>
        <object label="232-ATSC 4K HDTV, 5114-001" type="text-box" id="9742446134463482161">
          <mxCell id="7085264257540780053" value="232-ATSC 4K HDTV, 5114-001" style="rounded=0;whiteSpace=wrap;html=1;" parent="1" connectable="" edge="" vertex="1" source="" target="">
            <mxGeometry x="-4500" y="3400" width="160" height="40" relative="" as="geometry"/>
          </mxCell>
        </object>
        <object label="" type="DTP" id="6395594002411291486">
          <mxCell id="8975857568186515309" value="" style="rounded=0;whiteSpace=wrap;html=1;" parent="1" connectable="" edge="" vertex="1" source="" target="">
            <mxGeometry x="-4500" y="3700" width="160" height="80" relative="" as="geometry"/>
          </mxCell>
        </object>
        <object label="DTP 4K 230 Tx, 60-1271-12" type="text-box" id="9518493988005387523">
          <mxCell id="7353204891362806970" value="DTP 4K 230 Tx, 60-1271-12" style="rounded=0;whiteSpace=wrap;html=1;" parent="1" connectable="" edge="" vertex="1" source="" target="">
            <mxGeometry x="-4500" y="3700" width="160" height="40" relative="" as="geometry"/>
          </mxCell>
        </object>
        <object label="" type="DTP" id="764782109377394492">
          <mxCell id="8471391551728641521" value="" style="rounded=0;whiteSpace=wrap;html=1;" parent="1" connectable="" edge="" vertex="1" source="" target="">
            <mxGeometry x="-4500" y="3800" width="160" height="80" relative="" as="geometry"/>
          </mxCell>
        </object>
        <object label="DTP 4K 230 Tx, 60-1271-12" type="text-box" id="2513541486291133876">
          <mxCell id="8129232171777400127" value="DTP 4K 230 Tx, 60-1271-12" style="rounded=0;whiteSpace=wrap;html=1;" parent="1" connectable="" edge="" vertex="1" source="" target="">
            <mxGeometry x="-4500" y="3800" width="160" height="40" relative="" as="geometry"/>
          </mxCell>
        </object>
        <object label="" type="DTP" id="4585418864485309083">
          <mxCell id="1832580302198777540" value="" style="rounded=0;whiteSpace=wrap;html=1;" parent="1" connectable="" edge="" vertex="1" source="" target="">
            <mxGeometry x="-4500" y="3900" width="160" height="80" relative="" as="geometry"/>
          </mxCell>
        </object>
        <object label="DTP 4K 230 Tx, 60-1271-12" type="text-box" id="5009774430735735932">
          <mxCell id="4729379965504641746" value="DTP 4K 230 Tx, 60-1271-12" style="rounded=0;whiteSpace=wrap;html=1;" parent="1" connectable="" edge="" vertex="1" source="" target="">
            <mxGeometry x="-4500" y="3900" width="160" height="40" relative="" as="geometry"/>
          </mxCell>
        </object>
        <object label="" type="DTP" id="3653516454561953935">
          <mxCell id="4476610498611875037" value="" style="rounded=0;whiteSpace=wrap;html=1;" parent="1" connectable="" edge="" vertex="1" source="" target="">
            <mxGeometry x="-4500" y="4000" width="160" height="80" relative="" as="geometry"/>
          </mxCell>
        </object>
        <object label="DTP 4K 230 Tx, 60-1271-12" type="text-box" id="9637950609166099336">
          <mxCell id="7564688729893453895" value="DTP 4K 230 Tx, 60-1271-12" style="rounded=0;whiteSpace=wrap;html=1;" parent="1" connectable="" edge="" vertex="1" source="" target="">
            <mxGeometry x="-4500" y="4000" width="160" height="40" relative="" as="geometry"/>
          </mxCell>
        </object>
        <object label="" type="DTP" id="5205499295156166895">
          <mxCell id="2711154130571403762" value="" style="rounded=0;whiteSpace=wrap;html=1;" parent="1" connectable="" edge="" vertex="1" source="" target="">
            <mxGeometry x="-3680" y="3100" width="160" height="80" relative="" as="geometry"/>
          </mxCell>
        </object>
        <object label="Webex EQ CODEC, CS-CODEC-EQ-NR++" type="text-box" id="5430517892225483403">
          <mxCell id="7652060599845172573" value="Webex EQ CODEC, CS-CODEC-EQ-NR++" style="rounded=0;whiteSpace=wrap;html=1;" parent="1" connectable="" edge="" vertex="1" source="" target="">
            <mxGeometry x="-3680" y="3100" width="160" height="40" relative="" as="geometry"/>
          </mxCell>
        </object>
        <object label="" type="DTP" id="9977577114501365917">
          <mxCell id="459946245068230220" value="" style="rounded=0;whiteSpace=wrap;html=1;" parent="1" connectable="" edge="" vertex="1" source="" target="">
            <mxGeometry x="-3680" y="3200" width="160" height="80" relative="" as="geometry"/>
          </mxCell>
        </object>
        <object label="Webex EQ CODEC, CS-CODEC-EQ-NR++" type="text-box" id="3457538761958598266">
          <mxCell id="7770117231969683620" value="Webex EQ CODEC, CS-CODEC-EQ-NR++" style="rounded=0;whiteSpace=wrap;html=1;" parent="1" connectable="" edge="" vertex="1" source="" target="">
            <mxGeometry x="-3680" y="3200" width="160" height="40" relative="" as="geometry"/>
          </mxCell>
        </object>
        <object label="" type="DTP" id="4497843026997402055">
          <mxCell id="992449904185284226" value="" style="rounded=0;whiteSpace=wrap;html=1;" parent="1" connectable="" edge="" vertex="1" source="" target="">
            <mxGeometry x="-3680" y="3300" width="160" height="80" relative="" as="geometry"/>
          </mxCell>
        </object>
        <object label="DA HD 4K Plus, 60-1607-01" type="text-box" id="348071007090087121">
          <mxCell id="1675209392191609404" value="DA HD 4K Plus, 60-1607-01" style="rounded=0;whiteSpace=wrap;html=1;" parent="1" connectable="" edge="" vertex="1" source="" target="">
            <mxGeometry x="-3680" y="3300" width="160" height="40" relative="" as="geometry"/>
          </mxCell>
        </object>
        <object label="" type="DTP" id="7334229089106738624">
          <mxCell id="4286689857534603464" value="" style="rounded=0;whiteSpace=wrap;html=1;" parent="1" connectable="" edge="" vertex="1" source="" target="">
            <mxGeometry x="-3680" y="3400" width="160" height="80" relative="" as="geometry"/>
          </mxCell>
        </object>
        <object label="232-ATSC 4K HDTV, 5114-001" type="text-box" id="9571856174404701721">
          <mxCell id="2678469755567779696" value="232-ATSC 4K HDTV, 5114-001" style="rounded=0;whiteSpace=wrap;html=1;" parent="1" connectable="" edge="" vertex="1" source="" target="">
            <mxGeometry x="-3680" y="3400" width="160" height="40" relative="" as="geometry"/>
          </mxCell>
        </object>
        <object label="" type="DTP" id="7116028267463047159">
          <mxCell id="5516156970704227164" value="" style="rounded=0;whiteSpace=wrap;html=1;" parent="1" connectable="" edge="" vertex="1" source="" target="">
            <mxGeometry x="-3680" y="3500" width="160" height="80" relative="" as="geometry"/>
          </mxCell>
        </object>
        <object label="Test" type="text-box" id="9459701682374592400">
          <mxCell id="3731703856114474578" value="Test" style="rounded=0;whiteSpace=wrap;html=1;" parent="1" connectable="" edge="" vertex="1" source="" target="">
            <mxGeometry x="-3680" y="3500" width="160" height="40" relative="" as="geometry"/>
          </mxCell>
        </object>
        <object label="" type="DTP" id="9190938373119608417">
          <mxCell id="244649211570534600" value="" style="rounded=0;whiteSpace=wrap;html=1;" parent="1" connectable="" edge="" vertex="1" source="" target="">
            <mxGeometry x="-3680" y="3700" width="160" height="80" relative="" as="geometry"/>
          </mxCell>
        </object>
        <object label="DTP 4K 230 Tx, 60-1271-12" type="text-box" id="8492858145365894215">
          <mxCell id="4600128753450899676" value="DTP 4K 230 Tx, 60-1271-12" style="rounded=0;whiteSpace=wrap;html=1;" parent="1" connectable="" edge="" vertex="1" source="" target="">
            <mxGeometry x="-3680" y="3700" width="160" height="40" relative="" as="geometry"/>
          </mxCell>
        </object>
        <object label="" type="DTP" id="4910225602186081849">
          <mxCell id="3583245136377385520" value="" style="rounded=0;whiteSpace=wrap;html=1;" parent="1" connectable="" edge="" vertex="1" source="" target="">
            <mxGeometry x="-3680" y="3800" width="160" height="80" relative="" as="geometry"/>
          </mxCell>
        </object>
        <object label="DTP 4K 230 Tx, 60-1271-12" type="text-box" id="1822632624729006548">
          <mxCell id="8328358519931421166" value="DTP 4K 230 Tx, 60-1271-12" style="rounded=0;whiteSpace=wrap;html=1;" parent="1" connectable="" edge="" vertex="1" source="" target="">
            <mxGeometry x="-3680" y="3800" width="160" height="40" relative="" as="geometry"/>
          </mxCell>
        </object>
        <object label="" type="DTP" id="6977880287507192720">
          <mxCell id="7117506110741552659" value="" style="rounded=0;whiteSpace=wrap;html=1;" parent="1" connectable="" edge="" vertex="1" source="" target="">
            <mxGeometry x="-3680" y="3900" width="160" height="80" relative="" as="geometry"/>
          </mxCell>
        </object>
        <object label="DTP 4K 230 Tx, 60-1271-12" type="text-box" id="9500990148359755866">
          <mxCell id="2453979338927241849" value="DTP 4K 230 Tx, 60-1271-12" style="rounded=0;whiteSpace=wrap;html=1;" parent="1" connectable="" edge="" vertex="1" source="" target="">
            <mxGeometry x="-3680" y="3900" width="160" height="40" relative="" as="geometry"/>
          </mxCell>
        </object>
        <object label="" type="DTP" id="6962420091255472193">
          <mxCell id="930317007530989780" value="" style="rounded=0;whiteSpace=wrap;html=1;" parent="1" connectable="" edge="" vertex="1" source="" target="">
            <mxGeometry x="-3680" y="4000" width="160" height="80" relative="" as="geometry"/>
          </mxCell>
        </object>
        <object label="DTP 4K 230 Tx, 60-1271-12" type="text-box" id="3853535238674004543">
          <mxCell id="4269449934220409710" value="DTP 4K 230 Tx, 60-1271-12" style="rounded=0;whiteSpace=wrap;html=1;" parent="1" connectable="" edge="" vertex="1" source="" target="">
            <mxGeometry x="-3680" y="4000" width="160" height="40" relative="" as="geometry"/>
          </mxCell>
        </object>
        <object label="" type="DTP" id="5535362898768277889">
          <mxCell id="233468137870334391" value="" style="rounded=0;whiteSpace=wrap;html=1;" parent="1" connectable="" edge="" vertex="1" source="" target="">
            <mxGeometry x="-4900" y="3100" width="160" height="80" relative="" as="geometry"/>
          </mxCell>
        </object>
        <object label="TEST" type="text-box" id="2506252244937370891">
          <mxCell id="3436397450983314408" value="TEST" style="rounded=0;whiteSpace=wrap;html=1;" parent="1" connectable="" edge="" vertex="1" source="" target="">
            <mxGeometry x="-4900" y="3100" width="160" height="40" relative="" as="geometry"/>
          </mxCell>
        </object>
        <object label="" type="DTP" id="6561760450446679224">
          <mxCell id="2178467330769460564" value="" style="rounded=0;whiteSpace=wrap;html=1;" parent="1" connectable="" edge="" vertex="1" source="" target="">
            <mxGeometry x="-4900" y="3300" width="160" height="80" relative="" as="geometry"/>
          </mxCell>
        </object>
        <object label="OneLink Bridge" type="text-box" id="6548976830977183359">
          <mxCell id="8361199134644712892" value="OneLink Bridge" style="rounded=0;whiteSpace=wrap;html=1;" parent="1" connectable="" edge="" vertex="1" source="" target="">
            <mxGeometry x="-4900" y="3300" width="160" height="40" relative="" as="geometry"/>
          </mxCell>
        </object>
        <object label="" type="DTP" id="7635030635405726066">
          <mxCell id="4697604290008826162" value="" style="rounded=0;whiteSpace=wrap;html=1;" parent="1" connectable="" edge="" vertex="1" source="" target="">
            <mxGeometry x="-4900" y="3700" width="160" height="80" relative="" as="geometry"/>
          </mxCell>
        </object>
        <object label="BYOD" type="text-box" id="3510012124167472077">
          <mxCell id="4935718126494012891" value="BYOD" style="rounded=0;whiteSpace=wrap;html=1;" parent="1" connectable="" edge="" vertex="1" source="" target="">
            <mxGeometry x="-4900" y="3700" width="160" height="40" relative="" as="geometry"/>
          </mxCell>
        </object>
        <object label="" type="DTP" id="8290372844127791616">
          <mxCell id="4122350865902307199" value="" style="rounded=0;whiteSpace=wrap;html=1;" parent="1" connectable="" edge="" vertex="1" source="" target="">
            <mxGeometry x="-4900" y="3800" width="160" height="80" relative="" as="geometry"/>
          </mxCell>
        </object>
        <object label="BYOD" type="text-box" id="3994633086610189874">
          <mxCell id="9937954465382734236" value="BYOD" style="rounded=0;whiteSpace=wrap;html=1;" parent="1" connectable="" edge="" vertex="1" source="" target="">
            <mxGeometry x="-4900" y="3800" width="160" height="40" relative="" as="geometry"/>
          </mxCell>
        </object>
        <object label="" type="DTP" id="3853724974804445958">
          <mxCell id="3808764349325024016" value="" style="rounded=0;whiteSpace=wrap;html=1;" parent="1" connectable="" edge="" vertex="1" source="" target="">
            <mxGeometry x="-4900" y="3900" width="160" height="80" relative="" as="geometry"/>
          </mxCell>
        </object>
        <object label="BYOD" type="text-box" id="3406401633457774278">
          <mxCell id="2946467606768570653" value="BYOD" style="rounded=0;whiteSpace=wrap;html=1;" parent="1" connectable="" edge="" vertex="1" source="" target="">
            <mxGeometry x="-4900" y="3900" width="160" height="40" relative="" as="geometry"/>
          </mxCell>
        </object>
        <object label="" type="DTP" id="9471332485431265269">
          <mxCell id="6020220654612336777" value="" style="rounded=0;whiteSpace=wrap;html=1;" parent="1" connectable="" edge="" vertex="1" source="" target="">
            <mxGeometry x="-4900" y="4000" width="160" height="80" relative="" as="geometry"/>
          </mxCell>
        </object>
        <object label="BYOD" type="text-box" id="4660709730773977373">
          <mxCell id="9943808722476501160" value="BYOD" style="rounded=0;whiteSpace=wrap;html=1;" parent="1" connectable="" edge="" vertex="1" source="" target="">
            <mxGeometry x="-4900" y="4000" width="160" height="40" relative="" as="geometry"/>
          </mxCell>
        </object>
        <object label="" type="DTP" id="5159839383561373871">
          <mxCell id="1785385152999412560" value="" style="rounded=0;whiteSpace=wrap;html=1;" parent="1" connectable="" edge="" vertex="1" source="" target="">
            <mxGeometry x="-3280" y="3700" width="160" height="80" relative="" as="geometry"/>
          </mxCell>
        </object>
        <object label="75 UHD Samsung" type="text-box" id="142098552675361693">
          <mxCell id="3160441255497053068" value="75 UHD Samsung" style="rounded=0;whiteSpace=wrap;html=1;" parent="1" connectable="" edge="" vertex="1" source="" target="">
            <mxGeometry x="-3280" y="3700" width="160" height="40" relative="" as="geometry"/>
          </mxCell>
        </object>
        <object label="" type="DTP" id="6291553982545101636">
          <mxCell id="3815779692472142776" value="" style="rounded=0;whiteSpace=wrap;html=1;" parent="1" connectable="" edge="" vertex="1" source="" target="">
            <mxGeometry x="-3280" y="3800" width="160" height="80" relative="" as="geometry"/>
          </mxCell>
        </object>
        <object label="75 UHD Samsung" type="text-box" id="8823338259022200190">
          <mxCell id="808109567842136710" value="75 UHD Samsung" style="rounded=0;whiteSpace=wrap;html=1;" parent="1" connectable="" edge="" vertex="1" source="" target="">
            <mxGeometry x="-3280" y="3800" width="160" height="40" relative="" as="geometry"/>
          </mxCell>
        </object>
        <object label="" type="DTP" id="8921642833699584827">
          <mxCell id="1074541015033464917" value="" style="rounded=0;whiteSpace=wrap;html=1;" parent="1" connectable="" edge="" vertex="1" source="" target="">
            <mxGeometry x="-3280" y="3900" width="160" height="80" relative="" as="geometry"/>
          </mxCell>
        </object>
        <object label="75 UHD Samsung" type="text-box" id="7641656693450500234">
          <mxCell id="7151887342220315743" value="75 UHD Samsung" style="rounded=0;whiteSpace=wrap;html=1;" parent="1" connectable="" edge="" vertex="1" source="" target="">
            <mxGeometry x="-3280" y="3900" width="160" height="40" relative="" as="geometry"/>
          </mxCell>
        </object>
        <object label="" type="DTP" id="5317066445170727150">
          <mxCell id="8717059537002613003" value="" style="rounded=0;whiteSpace=wrap;html=1;" parent="1" connectable="" edge="" vertex="1" source="" target="">
            <mxGeometry x="-3280" y="4000" width="160" height="80" relative="" as="geometry"/>
          </mxCell>
        </object>
        <object label="75 UHD Samsung" type="text-box" id="8961662725747709523">
          <mxCell id="4707415419472551409" value="75 UHD Samsung" style="rounded=0;whiteSpace=wrap;html=1;" parent="1" connectable="" edge="" vertex="1" source="" target="">
            <mxGeometry x="-3280" y="4000" width="160" height="40" relative="" as="geometry"/>
          </mxCell>
        </object>
        <object label="" type="DTP" id="6767531489309422469">
          <mxCell id="7675585746529202419" value="" style="rounded=0;whiteSpace=wrap;html=1;" parent="1" connectable="" edge="" vertex="1" source="" target="">
            <mxGeometry x="-5300" y="3300" width="160" height="80" relative="" as="geometry"/>
          </mxCell>
        </object>
        <object label="Vaddio Roboshot 12E, 999-99600-100" type="text-box" id="7958519884401753482">
          <mxCell id="4417872058262183138" value="Vaddio Roboshot 12E, 999-99600-100" style="rounded=0;whiteSpace=wrap;html=1;" parent="1" connectable="" edge="" vertex="1" source="" target="">
            <mxGeometry x="-5300" y="3300" width="160" height="40" relative="" as="geometry"/>
          </mxCell>
        </object>
        <object label="&amp;nbsp;&amp;nbsp;HDMI" type="text-box" id="3797033825126136477">
          <mxCell id="4503127705861724908" value="&amp;nbsp;&amp;nbsp;HDMI" style="text;html=1;strokeColor=none;fillColor=none;align=left;verticalAlign=middle;whiteSpace=wrap;rounded=0;" parent="1" connectable="" edge="" vertex="1" source="" target="">
            <mxGeometry x="-4500" y="3140" width="80" height="40" relative="" as="geometry"/>
          </mxCell>
        </object>
        <object label="&amp;nbsp;&amp;nbsp;&amp;nbsp;&amp;nbsp;&amp;nbsp;HDMI" type="text-box" id="3273965575954966007">
          <mxCell id="7359893369722008495" value="&amp;nbsp;&amp;nbsp;&amp;nbsp;&amp;nbsp;&amp;nbsp;HDMI" style="text;html=1;strokeColor=none;fillColor=none;align=left;verticalAlign=middle;whiteSpace=wrap;rounded=0;" parent="1" connectable="" edge="" vertex="1" source="" target="">
            <mxGeometry x="-4400" y="3140" width="80" height="40" relative="" as="geometry"/>
          </mxCell>
        </object>
        <object label="&amp;nbsp;&amp;nbsp;TEST" type="text-box" id="9639797898777689812">
          <mxCell id="5532759655406707515" value="&amp;nbsp;&amp;nbsp;TEST" style="text;html=1;strokeColor=none;fillColor=none;align=left;verticalAlign=middle;whiteSpace=wrap;rounded=0;" parent="1" connectable="" edge="" vertex="1" source="" target="">
            <mxGeometry x="-4500" y="3240" width="80" height="40" relative="" as="geometry"/>
          </mxCell>
        </object>
        <object label="&amp;nbsp;&amp;nbsp;&amp;nbsp;&amp;nbsp;&amp;nbsp;TEST" type="text-box" id="4414160128604008738">
          <mxCell id="125054303767282172" value="&amp;nbsp;&amp;nbsp;&amp;nbsp;&amp;nbsp;&amp;nbsp;TEST" style="text;html=1;strokeColor=none;fillColor=none;align=left;verticalAlign=middle;whiteSpace=wrap;rounded=0;" parent="1" connectable="" edge="" vertex="1" source="" target="">
            <mxGeometry x="-4400" y="3240" width="80" height="40" relative="" as="geometry"/>
          </mxCell>
        </object>
        <object label="&amp;nbsp;&amp;nbsp;TEST" type="text-box" id="122168387320674458">
          <mxCell id="1714985761980606598" value="&amp;nbsp;&amp;nbsp;TEST" style="text;html=1;strokeColor=none;fillColor=none;align=left;verticalAlign=middle;whiteSpace=wrap;rounded=0;" parent="1" connectable="" edge="" vertex="1" source="" target="">
            <mxGeometry x="-4500" y="3340" width="80" height="40" relative="" as="geometry"/>
          </mxCell>
        </object>
        <object label="&amp;nbsp;&amp;nbsp;&amp;nbsp;&amp;nbsp;&amp;nbsp;TEST" type="text-box" id="1465652723112723455">
          <mxCell id="1635287810386334937" value="&amp;nbsp;&amp;nbsp;&amp;nbsp;&amp;nbsp;&amp;nbsp;TEST" style="text;html=1;strokeColor=none;fillColor=none;align=left;verticalAlign=middle;whiteSpace=wrap;rounded=0;" parent="1" connectable="" edge="" vertex="1" source="" target="">
            <mxGeometry x="-4400" y="3340" width="80" height="40" relative="" as="geometry"/>
          </mxCell>
        </object>
        <object label="&amp;nbsp;&amp;nbsp;HDMI" type="text-box" id="1832461410919735226">
          <mxCell id="4018078795684418734" value="&amp;nbsp;&amp;nbsp;HDMI" style="text;html=1;strokeColor=none;fillColor=none;align=left;verticalAlign=middle;whiteSpace=wrap;rounded=0;" parent="1" connectable="" edge="" vertex="1" source="" target="">
            <mxGeometry x="-4500" y="3440" width="80" height="40" relative="" as="geometry"/>
          </mxCell>
        </object>
        <object label="&amp;nbsp;&amp;nbsp;&amp;nbsp;&amp;nbsp;&amp;nbsp;HDMI" type="text-box" id="5012017527131414695">
          <mxCell id="5315096784180378367" value="&amp;nbsp;&amp;nbsp;&amp;nbsp;&amp;nbsp;&amp;nbsp;HDMI" style="text;html=1;strokeColor=none;fillColor=none;align=left;verticalAlign=middle;whiteSpace=wrap;rounded=0;" parent="1" connectable="" edge="" vertex="1" source="" target="">
            <mxGeometry x="-4400" y="3440" width="80" height="40" relative="" as="geometry"/>
          </mxCell>
        </object>
        <object label="&amp;nbsp;&amp;nbsp;HDMI" type="text-box" id="9591881820695017577">
          <mxCell id="8523714171884839164" value="&amp;nbsp;&amp;nbsp;HDMI" style="text;html=1;strokeColor=none;fillColor=none;align=left;verticalAlign=middle;whiteSpace=wrap;rounded=0;" parent="1" connectable="" edge="" vertex="1" source="" target="">
            <mxGeometry x="-4500" y="3740" width="80" height="40" relative="" as="geometry"/>
          </mxCell>
        </object>
        <object label="&amp;nbsp;&amp;nbsp;&amp;nbsp;&amp;nbsp;&amp;nbsp;&amp;nbsp;STP" type="text-box" id="7074683315321641747">
          <mxCell id="594280736538310401" value="&amp;nbsp;&amp;nbsp;&amp;nbsp;&amp;nbsp;&amp;nbsp;&amp;nbsp;STP" style="text;html=1;strokeColor=none;fillColor=none;align=left;verticalAlign=middle;whiteSpace=wrap;rounded=0;" parent="1" connectable="" edge="" vertex="1" source="" target="">
            <mxGeometry x="-4400" y="3740" width="60" height="40" relative="" as="geometry"/>
          </mxCell>
        </object>
        <object label="&amp;nbsp;&amp;nbsp;HDMI" type="text-box" id="7102437481879290206">
          <mxCell id="9262225007004547306" value="&amp;nbsp;&amp;nbsp;HDMI" style="text;html=1;strokeColor=none;fillColor=none;align=left;verticalAlign=middle;whiteSpace=wrap;rounded=0;" parent="1" connectable="" edge="" vertex="1" source="" target="">
            <mxGeometry x="-4500" y="3840" width="80" height="40" relative="" as="geometry"/>
          </mxCell>
        </object>
        <object label="&amp;nbsp;&amp;nbsp;&amp;nbsp;&amp;nbsp;&amp;nbsp;&amp;nbsp;STP" type="text-box" id="6996338528250129659">
          <mxCell id="9595057451684037926" value="&amp;nbsp;&amp;nbsp;&amp;nbsp;&amp;nbsp;&amp;nbsp;&amp;nbsp;STP" style="text;html=1;strokeColor=none;fillColor=none;align=left;verticalAlign=middle;whiteSpace=wrap;rounded=0;" parent="1" connectable="" edge="" vertex="1" source="" target="">
            <mxGeometry x="-4400" y="3840" width="60" height="40" relative="" as="geometry"/>
          </mxCell>
        </object>
        <object label="&amp;nbsp;&amp;nbsp;HDMI" type="text-box" id="2565217029835197241">
          <mxCell id="4709430638373625997" value="&amp;nbsp;&amp;nbsp;HDMI" style="text;html=1;strokeColor=none;fillColor=none;align=left;verticalAlign=middle;whiteSpace=wrap;rounded=0;" parent="1" connectable="" edge="" vertex="1" source="" target="">
            <mxGeometry x="-4500" y="3940" width="80" height="40" relative="" as="geometry"/>
          </mxCell>
        </object>
        <object label="&amp;nbsp;&amp;nbsp;&amp;nbsp;&amp;nbsp;&amp;nbsp;&amp;nbsp;STP" type="text-box" id="3831033717273463322">
          <mxCell id="4499023259150967447" value="&amp;nbsp;&amp;nbsp;&amp;nbsp;&amp;nbsp;&amp;nbsp;&amp;nbsp;STP" style="text;html=1;strokeColor=none;fillColor=none;align=left;verticalAlign=middle;whiteSpace=wrap;rounded=0;" parent="1" connectable="" edge="" vertex="1" source="" target="">
            <mxGeometry x="-4400" y="3940" width="60" height="40" relative="" as="geometry"/>
          </mxCell>
        </object>
        <object label="&amp;nbsp;&amp;nbsp;HDMI" type="text-box" id="9648240884431257751">
          <mxCell id="6415914579208145890" value="&amp;nbsp;&amp;nbsp;HDMI" style="text;html=1;strokeColor=none;fillColor=none;align=left;verticalAlign=middle;whiteSpace=wrap;rounded=0;" parent="1" connectable="" edge="" vertex="1" source="" target="">
            <mxGeometry x="-4500" y="4040" width="80" height="40" relative="" as="geometry"/>
          </mxCell>
        </object>
        <object label="&amp;nbsp;&amp;nbsp;&amp;nbsp;&amp;nbsp;&amp;nbsp;&amp;nbsp;STP" type="text-box" id="4196769232674400982">
          <mxCell id="2322820220868018728" value="&amp;nbsp;&amp;nbsp;&amp;nbsp;&amp;nbsp;&amp;nbsp;&amp;nbsp;STP" style="text;html=1;strokeColor=none;fillColor=none;align=left;verticalAlign=middle;whiteSpace=wrap;rounded=0;" parent="1" connectable="" edge="" vertex="1" source="" target="">
            <mxGeometry x="-4400" y="4040" width="60" height="40" relative="" as="geometry"/>
          </mxCell>
        </object>
        <object label="&amp;nbsp;&amp;nbsp;TEST" type="text-box" id="6074280839972022096">
          <mxCell id="6197918155654318684" value="&amp;nbsp;&amp;nbsp;TEST" style="text;html=1;strokeColor=none;fillColor=none;align=left;verticalAlign=middle;whiteSpace=wrap;rounded=0;" parent="1" connectable="" edge="" vertex="1" source="" target="">
            <mxGeometry x="-3680" y="3140" width="80" height="40" relative="" as="geometry"/>
          </mxCell>
        </object>
        <object label="&amp;nbsp;&amp;nbsp;&amp;nbsp;&amp;nbsp;&amp;nbsp;TEST" type="text-box" id="9307535197329738964">
          <mxCell id="2272002593114014108" value="&amp;nbsp;&amp;nbsp;&amp;nbsp;&amp;nbsp;&amp;nbsp;TEST" style="text;html=1;strokeColor=none;fillColor=none;align=left;verticalAlign=middle;whiteSpace=wrap;rounded=0;" parent="1" connectable="" edge="" vertex="1" source="" target="">
            <mxGeometry x="-3580" y="3140" width="80" height="40" relative="" as="geometry"/>
          </mxCell>
        </object>
        <object label="&amp;nbsp;&amp;nbsp;TEST" type="text-box" id="3394435871629078702">
          <mxCell id="2393574340398610997" value="&amp;nbsp;&amp;nbsp;TEST" style="text;html=1;strokeColor=none;fillColor=none;align=left;verticalAlign=middle;whiteSpace=wrap;rounded=0;" parent="1" connectable="" edge="" vertex="1" source="" target="">
            <mxGeometry x="-3680" y="3240" width="80" height="40" relative="" as="geometry"/>
          </mxCell>
        </object>
        <object label="&amp;nbsp;&amp;nbsp;&amp;nbsp;&amp;nbsp;&amp;nbsp;TEST" type="text-box" id="7876087378660831687">
          <mxCell id="2146673041384652240" value="&amp;nbsp;&amp;nbsp;&amp;nbsp;&amp;nbsp;&amp;nbsp;TEST" style="text;html=1;strokeColor=none;fillColor=none;align=left;verticalAlign=middle;whiteSpace=wrap;rounded=0;" parent="1" connectable="" edge="" vertex="1" source="" target="">
            <mxGeometry x="-3580" y="3240" width="80" height="40" relative="" as="geometry"/>
          </mxCell>
        </object>
        <object label="&amp;nbsp;&amp;nbsp;TEST" type="text-box" id="3598469901647519253">
          <mxCell id="1604599311217106679" value="&amp;nbsp;&amp;nbsp;TEST" style="text;html=1;strokeColor=none;fillColor=none;align=left;verticalAlign=middle;whiteSpace=wrap;rounded=0;" parent="1" connectable="" edge="" vertex="1" source="" target="">
            <mxGeometry x="-3680" y="3340" width="80" height="40" relative="" as="geometry"/>
          </mxCell>
        </object>
        <object label="&amp;nbsp;&amp;nbsp;&amp;nbsp;&amp;nbsp;&amp;nbsp;TEST" type="text-box" id="3174644839083440801">
          <mxCell id="4109180836361447862" value="&amp;nbsp;&amp;nbsp;&amp;nbsp;&amp;nbsp;&amp;nbsp;TEST" style="text;html=1;strokeColor=none;fillColor=none;align=left;verticalAlign=middle;whiteSpace=wrap;rounded=0;" parent="1" connectable="" edge="" vertex="1" source="" target="">
            <mxGeometry x="-3580" y="3340" width="80" height="40" relative="" as="geometry"/>
          </mxCell>
        </object>
        <object label="&amp;nbsp;&amp;nbsp;TEST" type="text-box" id="1386192180707608901">
          <mxCell id="1309670339905288958" value="&amp;nbsp;&amp;nbsp;TEST" style="text;html=1;strokeColor=none;fillColor=none;align=left;verticalAlign=middle;whiteSpace=wrap;rounded=0;" parent="1" connectable="" edge="" vertex="1" source="" target="">
            <mxGeometry x="-3680" y="3440" width="80" height="40" relative="" as="geometry"/>
          </mxCell>
        </object>
        <object label="&amp;nbsp;&amp;nbsp;&amp;nbsp;&amp;nbsp;&amp;nbsp;TEST" type="text-box" id="2888289939043995396">
          <mxCell id="7671968449816005586" value="&amp;nbsp;&amp;nbsp;&amp;nbsp;&amp;nbsp;&amp;nbsp;TEST" style="text;html=1;strokeColor=none;fillColor=none;align=left;verticalAlign=middle;whiteSpace=wrap;rounded=0;" parent="1" connectable="" edge="" vertex="1" source="" target="">
            <mxGeometry x="-3580" y="3440" width="80" height="40" relative="" as="geometry"/>
          </mxCell>
        </object>
        <object label="&amp;nbsp;&amp;nbsp;HDMI" type="text-box" id="6216993184904225110">
          <mxCell id="4252130878257763088" value="&amp;nbsp;&amp;nbsp;HDMI" style="text;html=1;strokeColor=none;fillColor=none;align=left;verticalAlign=middle;whiteSpace=wrap;rounded=0;" parent="1" connectable="" edge="" vertex="1" source="" target="">
            <mxGeometry x="-3680" y="3540" width="80" height="40" relative="" as="geometry"/>
          </mxCell>
        </object>
        <object label="&amp;nbsp;&amp;nbsp;&amp;nbsp;&amp;nbsp;&amp;nbsp;&amp;nbsp;" type="text-box" id="8494321231376386758">
          <mxCell id="6883365617152013322" value="&amp;nbsp;&amp;nbsp;&amp;nbsp;&amp;nbsp;&amp;nbsp;&amp;nbsp;" style="text;html=1;strokeColor=none;fillColor=none;align=left;verticalAlign=middle;whiteSpace=wrap;rounded=0;" parent="1" connectable="" edge="" vertex="1" source="" target="">
            <mxGeometry x="-3580" y="3540" width="60" height="40" relative="" as="geometry"/>
          </mxCell>
        </object>
        <object label="&amp;nbsp;&amp;nbsp;&amp;nbsp;STP" type="text-box" id="7968518870758878611">
          <mxCell id="7258390873015497836" value="&amp;nbsp;&amp;nbsp;&amp;nbsp;STP" style="text;html=1;strokeColor=none;fillColor=none;align=left;verticalAlign=middle;whiteSpace=wrap;rounded=0;" parent="1" connectable="" edge="" vertex="1" source="" target="">
            <mxGeometry x="-3680" y="3740" width="60" height="40" relative="" as="geometry"/>
          </mxCell>
        </object>
        <object label="&amp;nbsp;&amp;nbsp;&amp;nbsp;&amp;nbsp;&amp;nbsp;HDMI" type="text-box" id="1959920891315685189">
          <mxCell id="348528215438929802" value="&amp;nbsp;&amp;nbsp;&amp;nbsp;&amp;nbsp;&amp;nbsp;HDMI" style="text;html=1;strokeColor=none;fillColor=none;align=left;verticalAlign=middle;whiteSpace=wrap;rounded=0;" parent="1" connectable="" edge="" vertex="1" source="" target="">
            <mxGeometry x="-3580" y="3740" width="80" height="40" relative="" as="geometry"/>
          </mxCell>
        </object>
        <object label="&amp;nbsp;&amp;nbsp;&amp;nbsp;STP" type="text-box" id="7845143647463738026">
          <mxCell id="7949205485245387429" value="&amp;nbsp;&amp;nbsp;&amp;nbsp;STP" style="text;html=1;strokeColor=none;fillColor=none;align=left;verticalAlign=middle;whiteSpace=wrap;rounded=0;" parent="1" connectable="" edge="" vertex="1" source="" target="">
            <mxGeometry x="-3680" y="3840" width="60" height="40" relative="" as="geometry"/>
          </mxCell>
        </object>
        <object label="&amp;nbsp;&amp;nbsp;&amp;nbsp;&amp;nbsp;&amp;nbsp;HDMI" type="text-box" id="2203733783031392181">
          <mxCell id="6356171853768263944" value="&amp;nbsp;&amp;nbsp;&amp;nbsp;&amp;nbsp;&amp;nbsp;HDMI" style="text;html=1;strokeColor=none;fillColor=none;align=left;verticalAlign=middle;whiteSpace=wrap;rounded=0;" parent="1" connectable="" edge="" vertex="1" source="" target="">
            <mxGeometry x="-3580" y="3840" width="80" height="40" relative="" as="geometry"/>
          </mxCell>
        </object>
        <object label="&amp;nbsp;&amp;nbsp;&amp;nbsp;STP" type="text-box" id="3591096879098800148">
          <mxCell id="1228198987612267863" value="&amp;nbsp;&amp;nbsp;&amp;nbsp;STP" style="text;html=1;strokeColor=none;fillColor=none;align=left;verticalAlign=middle;whiteSpace=wrap;rounded=0;" parent="1" connectable="" edge="" vertex="1" source="" target="">
            <mxGeometry x="-3680" y="3940" width="60" height="40" relative="" as="geometry"/>
          </mxCell>
        </object>
        <object label="&amp;nbsp;&amp;nbsp;&amp;nbsp;&amp;nbsp;&amp;nbsp;HDMI" type="text-box" id="7485834383532887490">
          <mxCell id="7017573920216997456" value="&amp;nbsp;&amp;nbsp;&amp;nbsp;&amp;nbsp;&amp;nbsp;HDMI" style="text;html=1;strokeColor=none;fillColor=none;align=left;verticalAlign=middle;whiteSpace=wrap;rounded=0;" parent="1" connectable="" edge="" vertex="1" source="" target="">
            <mxGeometry x="-3580" y="3940" width="80" height="40" relative="" as="geometry"/>
          </mxCell>
        </object>
        <object label="&amp;nbsp;&amp;nbsp;&amp;nbsp;STP" type="text-box" id="3300937992512989721">
          <mxCell id="9615649674987527569" value="&amp;nbsp;&amp;nbsp;&amp;nbsp;STP" style="text;html=1;strokeColor=none;fillColor=none;align=left;verticalAlign=middle;whiteSpace=wrap;rounded=0;" parent="1" connectable="" edge="" vertex="1" source="" target="">
            <mxGeometry x="-3680" y="4040" width="60" height="40" relative="" as="geometry"/>
          </mxCell>
        </object>
        <object label="&amp;nbsp;&amp;nbsp;&amp;nbsp;&amp;nbsp;&amp;nbsp;HDMI" type="text-box" id="2667973105100998263">
          <mxCell id="5118766087262945156" value="&amp;nbsp;&amp;nbsp;&amp;nbsp;&amp;nbsp;&amp;nbsp;HDMI" style="text;html=1;strokeColor=none;fillColor=none;align=left;verticalAlign=middle;whiteSpace=wrap;rounded=0;" parent="1" connectable="" edge="" vertex="1" source="" target="">
            <mxGeometry x="-3580" y="4040" width="80" height="40" relative="" as="geometry"/>
          </mxCell>
        </object>
        <object label="&amp;nbsp;&amp;nbsp;HDMI" type="text-box" id="1344415835894159744">
          <mxCell id="2048979786356884994" value="&amp;nbsp;&amp;nbsp;HDMI" style="text;html=1;strokeColor=none;fillColor=none;align=left;verticalAlign=middle;whiteSpace=wrap;rounded=0;" parent="1" connectable="" edge="" vertex="1" source="" target="">
            <mxGeometry x="-4900" y="3140" width="80" height="40" relative="" as="geometry"/>
          </mxCell>
        </object>
        <object label="&amp;nbsp;&amp;nbsp;&amp;nbsp;&amp;nbsp;&amp;nbsp;HDMI" type="text-box" id="4660022308726556093">
          <mxCell id="7334059097276383072" value="&amp;nbsp;&amp;nbsp;&amp;nbsp;&amp;nbsp;&amp;nbsp;HDMI" style="text;html=1;strokeColor=none;fillColor=none;align=left;verticalAlign=middle;whiteSpace=wrap;rounded=0;" parent="1" connectable="" edge="" vertex="1" source="" target="">
            <mxGeometry x="-4800" y="3140" width="80" height="40" relative="" as="geometry"/>
          </mxCell>
        </object>
        <object label="&amp;nbsp;&amp;nbsp;&amp;nbsp;STP" type="text-box" id="8603842182875467739">
          <mxCell id="2898483884606016830" value="&amp;nbsp;&amp;nbsp;&amp;nbsp;STP" style="text;html=1;strokeColor=none;fillColor=none;align=left;verticalAlign=middle;whiteSpace=wrap;rounded=0;" parent="1" connectable="" edge="" vertex="1" source="" target="">
            <mxGeometry x="-4900" y="3340" width="60" height="40" relative="" as="geometry"/>
          </mxCell>
        </object>
        <object label="&amp;nbsp;&amp;nbsp;&amp;nbsp;&amp;nbsp;&amp;nbsp;HDMI" type="text-box" id="756739964988040159">
          <mxCell id="3144944951782242447" value="&amp;nbsp;&amp;nbsp;&amp;nbsp;&amp;nbsp;&amp;nbsp;HDMI" style="text;html=1;strokeColor=none;fillColor=none;align=left;verticalAlign=middle;whiteSpace=wrap;rounded=0;" parent="1" connectable="" edge="" vertex="1" source="" target="">
            <mxGeometry x="-4800" y="3340" width="80" height="40" relative="" as="geometry"/>
          </mxCell>
        </object>
        <object label="&amp;nbsp;&amp;nbsp;&amp;nbsp;NA" type="text-box" id="4436698742416249743">
          <mxCell id="4211057944904258943" value="&amp;nbsp;&amp;nbsp;&amp;nbsp;NA" style="text;html=1;strokeColor=none;fillColor=none;align=left;verticalAlign=middle;whiteSpace=wrap;rounded=0;" parent="1" connectable="" edge="" vertex="1" source="" target="">
            <mxGeometry x="-4900" y="3740" width="60" height="40" relative="" as="geometry"/>
          </mxCell>
        </object>
        <object label="&amp;nbsp;&amp;nbsp;&amp;nbsp;&amp;nbsp;&amp;nbsp;HDMI" type="text-box" id="7578573433621301686">
          <mxCell id="9499468150740510998" value="&amp;nbsp;&amp;nbsp;&amp;nbsp;&amp;nbsp;&amp;nbsp;HDMI" style="text;html=1;strokeColor=none;fillColor=none;align=left;verticalAlign=middle;whiteSpace=wrap;rounded=0;" parent="1" connectable="" edge="" vertex="1" source="" target="">
            <mxGeometry x="-4800" y="3740" width="80" height="40" relative="" as="geometry"/>
          </mxCell>
        </object>
        <object label="&amp;nbsp;&amp;nbsp;&amp;nbsp;NA" type="text-box" id="1740278611782428586">
          <mxCell id="8053240757756907054" value="&amp;nbsp;&amp;nbsp;&amp;nbsp;NA" style="text;html=1;strokeColor=none;fillColor=none;align=left;verticalAlign=middle;whiteSpace=wrap;rounded=0;" parent="1" connectable="" edge="" vertex="1" source="" target="">
            <mxGeometry x="-4900" y="3840" width="60" height="40" relative="" as="geometry"/>
          </mxCell>
        </object>
        <object label="&amp;nbsp;&amp;nbsp;&amp;nbsp;&amp;nbsp;&amp;nbsp;HDMI" type="text-box" id="3164654528616243016">
          <mxCell id="7215225679393645616" value="&amp;nbsp;&amp;nbsp;&amp;nbsp;&amp;nbsp;&amp;nbsp;HDMI" style="text;html=1;strokeColor=none;fillColor=none;align=left;verticalAlign=middle;whiteSpace=wrap;rounded=0;" parent="1" connectable="" edge="" vertex="1" source="" target="">
            <mxGeometry x="-4800" y="3840" width="80" height="40" relative="" as="geometry"/>
          </mxCell>
        </object>
        <object label="&amp;nbsp;&amp;nbsp;&amp;nbsp;NA" type="text-box" id="5528193643679583534">
          <mxCell id="4876255400122995379" value="&amp;nbsp;&amp;nbsp;&amp;nbsp;NA" style="text;html=1;strokeColor=none;fillColor=none;align=left;verticalAlign=middle;whiteSpace=wrap;rounded=0;" parent="1" connectable="" edge="" vertex="1" source="" target="">
            <mxGeometry x="-4900" y="3940" width="60" height="40" relative="" as="geometry"/>
          </mxCell>
        </object>
        <object label="&amp;nbsp;&amp;nbsp;&amp;nbsp;&amp;nbsp;&amp;nbsp;HDMI" type="text-box" id="4352865686252538929">
          <mxCell id="5163329866443381031" value="&amp;nbsp;&amp;nbsp;&amp;nbsp;&amp;nbsp;&amp;nbsp;HDMI" style="text;html=1;strokeColor=none;fillColor=none;align=left;verticalAlign=middle;whiteSpace=wrap;rounded=0;" parent="1" connectable="" edge="" vertex="1" source="" target="">
            <mxGeometry x="-4800" y="3940" width="80" height="40" relative="" as="geometry"/>
          </mxCell>
        </object>
        <object label="&amp;nbsp;&amp;nbsp;&amp;nbsp;NA" type="text-box" id="4228924873065507864">
          <mxCell id="6089413366787591506" value="&amp;nbsp;&amp;nbsp;&amp;nbsp;NA" style="text;html=1;strokeColor=none;fillColor=none;align=left;verticalAlign=middle;whiteSpace=wrap;rounded=0;" parent="1" connectable="" edge="" vertex="1" source="" target="">
            <mxGeometry x="-4900" y="4040" width="60" height="40" relative="" as="geometry"/>
          </mxCell>
        </object>
        <object label="&amp;nbsp;&amp;nbsp;&amp;nbsp;&amp;nbsp;&amp;nbsp;HDMI" type="text-box" id="2768593864629760577">
          <mxCell id="4313843420979926409" value="&amp;nbsp;&amp;nbsp;&amp;nbsp;&amp;nbsp;&amp;nbsp;HDMI" style="text;html=1;strokeColor=none;fillColor=none;align=left;verticalAlign=middle;whiteSpace=wrap;rounded=0;" parent="1" connectable="" edge="" vertex="1" source="" target="">
            <mxGeometry x="-4800" y="4040" width="80" height="40" relative="" as="geometry"/>
          </mxCell>
        </object>
        <object label="&amp;nbsp;&amp;nbsp;QB75R-N" type="text-box" id="4309119139679841304">
          <mxCell id="1671382820033393540" value="&amp;nbsp;&amp;nbsp;QB75R-N" style="text;html=1;strokeColor=none;fillColor=none;align=left;verticalAlign=middle;whiteSpace=wrap;rounded=0;" parent="1" connectable="" edge="" vertex="1" source="" target="">
            <mxGeometry x="-3280" y="3740" width="80" height="40" relative="" as="geometry"/>
          </mxCell>
        </object>
        <object label="&amp;nbsp;&amp;nbsp;&amp;nbsp;&amp;nbsp;&amp;nbsp;HDMI" type="text-box" id="289921926349422401">
          <mxCell id="7154140164506852401" value="&amp;nbsp;&amp;nbsp;&amp;nbsp;&amp;nbsp;&amp;nbsp;HDMI" style="text;html=1;strokeColor=none;fillColor=none;align=left;verticalAlign=middle;whiteSpace=wrap;rounded=0;" parent="1" connectable="" edge="" vertex="1" source="" target="">
            <mxGeometry x="-3180" y="3740" width="80" height="40" relative="" as="geometry"/>
          </mxCell>
        </object>
        <object label="&amp;nbsp;&amp;nbsp;QB75R-N" type="text-box" id="2909792262148934462">
          <mxCell id="9001633267039482617" value="&amp;nbsp;&amp;nbsp;QB75R-N" style="text;html=1;strokeColor=none;fillColor=none;align=left;verticalAlign=middle;whiteSpace=wrap;rounded=0;" parent="1" connectable="" edge="" vertex="1" source="" target="">
            <mxGeometry x="-3280" y="3840" width="80" height="40" relative="" as="geometry"/>
          </mxCell>
        </object>
        <object label="&amp;nbsp;&amp;nbsp;&amp;nbsp;&amp;nbsp;&amp;nbsp;HDMI" type="text-box" id="7705169938664668215">
          <mxCell id="6574893956385204453" value="&amp;nbsp;&amp;nbsp;&amp;nbsp;&amp;nbsp;&amp;nbsp;HDMI" style="text;html=1;strokeColor=none;fillColor=none;align=left;verticalAlign=middle;whiteSpace=wrap;rounded=0;" parent="1" connectable="" edge="" vertex="1" source="" target="">
            <mxGeometry x="-3180" y="3840" width="80" height="40" relative="" as="geometry"/>
          </mxCell>
        </object>
        <object label="&amp;nbsp;&amp;nbsp;QB75R-N" type="text-box" id="4555308305917534693">
          <mxCell id="9628474450706983327" value="&amp;nbsp;&amp;nbsp;QB75R-N" style="text;html=1;strokeColor=none;fillColor=none;align=left;verticalAlign=middle;whiteSpace=wrap;rounded=0;" parent="1" connectable="" edge="" vertex="1" source="" target="">
            <mxGeometry x="-3280" y="3940" width="80" height="40" relative="" as="geometry"/>
          </mxCell>
        </object>
        <object label="&amp;nbsp;&amp;nbsp;&amp;nbsp;&amp;nbsp;&amp;nbsp;HDMI" type="text-box" id="7054465696379088540">
          <mxCell id="3204783854076060473" value="&amp;nbsp;&amp;nbsp;&amp;nbsp;&amp;nbsp;&amp;nbsp;HDMI" style="text;html=1;strokeColor=none;fillColor=none;align=left;verticalAlign=middle;whiteSpace=wrap;rounded=0;" parent="1" connectable="" edge="" vertex="1" source="" target="">
            <mxGeometry x="-3180" y="3940" width="80" height="40" relative="" as="geometry"/>
          </mxCell>
        </object>
        <object label="&amp;nbsp;&amp;nbsp;QB75R-N" type="text-box" id="943577510064082777">
          <mxCell id="9216622021329775299" value="&amp;nbsp;&amp;nbsp;QB75R-N" style="text;html=1;strokeColor=none;fillColor=none;align=left;verticalAlign=middle;whiteSpace=wrap;rounded=0;" parent="1" connectable="" edge="" vertex="1" source="" target="">
            <mxGeometry x="-3280" y="4040" width="80" height="40" relative="" as="geometry"/>
          </mxCell>
        </object>
        <object label="&amp;nbsp;&amp;nbsp;&amp;nbsp;&amp;nbsp;&amp;nbsp;HDMI" type="text-box" id="3807648820241319424">
          <mxCell id="7005324213867904252" value="&amp;nbsp;&amp;nbsp;&amp;nbsp;&amp;nbsp;&amp;nbsp;HDMI" style="text;html=1;strokeColor=none;fillColor=none;align=left;verticalAlign=middle;whiteSpace=wrap;rounded=0;" parent="1" connectable="" edge="" vertex="1" source="" target="">
            <mxGeometry x="-3180" y="4040" width="80" height="40" relative="" as="geometry"/>
          </mxCell>
        </object>
        <object label="&amp;nbsp;&amp;nbsp;&amp;nbsp;" type="text-box" id="1207235538001893152">
          <mxCell id="6308583582106150049" value="&amp;nbsp;&amp;nbsp;&amp;nbsp;" style="text;html=1;strokeColor=none;fillColor=none;align=left;verticalAlign=middle;whiteSpace=wrap;rounded=0;" parent="1" connectable="" edge="" vertex="1" source="" target="">
            <mxGeometry x="-5300" y="3340" width="60" height="40" relative="" as="geometry"/>
          </mxCell>
        </object>
        <object label="&amp;nbsp;&amp;nbsp;&amp;nbsp;&amp;nbsp;&amp;nbsp;&amp;nbsp;STP" type="text-box" id="6210374038176103714">
          <mxCell id="7414698560938433303" value="&amp;nbsp;&amp;nbsp;&amp;nbsp;&amp;nbsp;&amp;nbsp;&amp;nbsp;STP" style="text;html=1;strokeColor=none;fillColor=none;align=left;verticalAlign=middle;whiteSpace=wrap;rounded=0;" parent="1" connectable="" edge="" vertex="1" source="" target="">
            <mxGeometry x="-5200" y="3340" width="60" height="40" relative="" as="geometry"/>
          </mxCell>
        </object>
        <object label="" type="arrow" id="7120027241950122306">
          <mxCell id="9373895616545426199" value="" style="edgeStyle=loopEdgeStyle;orthogonalloop=0;rounded=0;jettySize=auto;html=1" parent="1" connectable="" edge="1" vertex="" source="" target="">
            <mxGeometry x="" y="" width="" height="" relative="1" as="geometry">
              <mxPoint x="-4340" y="3160" as="sourcePoint"/>
              <mxPoint x="-4100" y="3160" as="targetPoint"/>
            </mxGeometry>
          </mxCell>
        </object>
        <object label="" type="arrow" id="8207565590049629378">
          <mxCell id="9444405069840700157" value="" style="edgeStyle=loopEdgeStyle;orthogonalloop=0;rounded=0;jettySize=auto;html=1" parent="1" connectable="" edge="1" vertex="" source="" target="">
            <mxGeometry x="" y="" width="" height="" relative="1" as="geometry">
              <mxPoint x="-4340" y="3260" as="sourcePoint"/>
              <mxPoint x="-4100" y="3260" as="targetPoint"/>
            </mxGeometry>
          </mxCell>
        </object>
        <object label="" type="arrow" id="9141029937897738647">
          <mxCell id="3330121708322838334" value="" style="edgeStyle=loopEdgeStyle;orthogonalloop=0;rounded=0;jettySize=auto;html=1" parent="1" connectable="" edge="1" vertex="" source="" target="">
            <mxGeometry x="" y="" width="" height="" relative="1" as="geometry">
              <mxPoint x="-4340" y="3360" as="sourcePoint"/>
              <mxPoint x="-4100" y="3360" as="targetPoint"/>
            </mxGeometry>
          </mxCell>
        </object>
        <object label="" type="arrow" id="2880638813398555969">
          <mxCell id="7492204972199940499" value="" style="edgeStyle=loopEdgeStyle;orthogonalloop=0;rounded=0;jettySize=auto;html=1" parent="1" connectable="" edge="1" vertex="" source="" target="">
            <mxGeometry x="" y="" width="" height="" relative="1" as="geometry">
              <mxPoint x="-4340" y="3460" as="sourcePoint"/>
              <mxPoint x="-4100" y="3460" as="targetPoint"/>
            </mxGeometry>
          </mxCell>
        </object>
        <object label="" type="arrow" id="9635650635668738949">
          <mxCell id="8775562080607261742" value="" style="edgeStyle=loopEdgeStyle;orthogonalloop=0;rounded=0;jettySize=auto;html=1" parent="1" connectable="" edge="1" vertex="" source="" target="">
            <mxGeometry x="" y="" width="" height="" relative="1" as="geometry">
              <mxPoint x="-4340" y="3760" as="sourcePoint"/>
              <mxPoint x="-4100" y="3760" as="targetPoint"/>
            </mxGeometry>
          </mxCell>
        </object>
        <object label="" type="arrow" id="5354575788768348210">
          <mxCell id="6908635279318282929" value="" style="edgeStyle=loopEdgeStyle;orthogonalloop=0;rounded=0;jettySize=auto;html=1" parent="1" connectable="" edge="1" vertex="" source="" target="">
            <mxGeometry x="" y="" width="" height="" relative="1" as="geometry">
              <mxPoint x="-4340" y="3860" as="sourcePoint"/>
              <mxPoint x="-4100" y="3860" as="targetPoint"/>
            </mxGeometry>
          </mxCell>
        </object>
        <object label="" type="arrow" id="4597686953469052957">
          <mxCell id="1549705406092278225" value="" style="edgeStyle=loopEdgeStyle;orthogonalloop=0;rounded=0;jettySize=auto;html=1" parent="1" connectable="" edge="1" vertex="" source="" target="">
            <mxGeometry x="" y="" width="" height="" relative="1" as="geometry">
              <mxPoint x="-4340" y="3960" as="sourcePoint"/>
              <mxPoint x="-4100" y="3960" as="targetPoint"/>
            </mxGeometry>
          </mxCell>
        </object>
        <object label="" type="arrow" id="869258641444545335">
          <mxCell id="7067112741312134107" value="" style="edgeStyle=loopEdgeStyle;orthogonalloop=0;rounded=0;jettySize=auto;html=1" parent="1" connectable="" edge="1" vertex="" source="" target="">
            <mxGeometry x="" y="" width="" height="" relative="1" as="geometry">
              <mxPoint x="-4340" y="4060" as="sourcePoint"/>
              <mxPoint x="-4100" y="4060" as="targetPoint"/>
            </mxGeometry>
          </mxCell>
        </object>
        <object label="" type="arrow" id="9234116129642254887">
          <mxCell id="1423985455227088437" value="" style="edgeStyle=loopEdgeStyle;orthogonalloop=0;rounded=0;jettySize=auto;html=1" parent="1" connectable="" edge="1" vertex="" source="" target="">
            <mxGeometry x="" y="" width="" height="" relative="1" as="geometry">
              <mxPoint x="-3900" y="3160" as="sourcePoint"/>
              <mxPoint x="-3680" y="3160" as="targetPoint"/>
            </mxGeometry>
          </mxCell>
        </object>
        <object label="" type="arrow" id="3261052737111477081">
          <mxCell id="7379534240890467840" value="" style="edgeStyle=loopEdgeStyle;orthogonalloop=0;rounded=0;jettySize=auto;html=1" parent="1" connectable="" edge="1" vertex="" source="" target="">
            <mxGeometry x="" y="" width="" height="" relative="1" as="geometry">
              <mxPoint x="-3900" y="3260" as="sourcePoint"/>
              <mxPoint x="-3680" y="3260" as="targetPoint"/>
            </mxGeometry>
          </mxCell>
        </object>
        <object label="" type="arrow" id="8615342547362819889">
          <mxCell id="6697279200829357585" value="" style="edgeStyle=loopEdgeStyle;orthogonalloop=0;rounded=0;jettySize=auto;html=1" parent="1" connectable="" edge="1" vertex="" source="" target="">
            <mxGeometry x="" y="" width="" height="" relative="1" as="geometry">
              <mxPoint x="-3900" y="3360" as="sourcePoint"/>
              <mxPoint x="-3680" y="3360" as="targetPoint"/>
            </mxGeometry>
          </mxCell>
        </object>
        <object label="" type="arrow" id="8415032175757392783">
          <mxCell id="9718612085482896744" value="" style="edgeStyle=loopEdgeStyle;orthogonalloop=0;rounded=0;jettySize=auto;html=1" parent="1" connectable="" edge="1" vertex="" source="" target="">
            <mxGeometry x="" y="" width="" height="" relative="1" as="geometry">
              <mxPoint x="-3900" y="3460" as="sourcePoint"/>
              <mxPoint x="-3680" y="3460" as="targetPoint"/>
            </mxGeometry>
          </mxCell>
        </object>
        <object label="" type="arrow" id="6686946740492690079">
          <mxCell id="740153423667297831" value="" style="edgeStyle=loopEdgeStyle;orthogonalloop=0;rounded=0;jettySize=auto;html=1" parent="1" connectable="" edge="1" vertex="" source="" target="">
            <mxGeometry x="" y="" width="" height="" relative="1" as="geometry">
              <mxPoint x="-3900" y="3560" as="sourcePoint"/>
              <mxPoint x="-3680" y="3560" as="targetPoint"/>
            </mxGeometry>
          </mxCell>
        </object>
        <object label="" type="arrow" id="9191933353907348251">
          <mxCell id="9354255065789913056" value="" style="edgeStyle=loopEdgeStyle;orthogonalloop=0;rounded=0;jettySize=auto;html=1" parent="1" connectable="" edge="1" vertex="" source="" target="">
            <mxGeometry x="" y="" width="" height="" relative="1" as="geometry">
              <mxPoint x="-3900" y="3760" as="sourcePoint"/>
              <mxPoint x="-3680" y="3760" as="targetPoint"/>
            </mxGeometry>
          </mxCell>
        </object>
        <object label="" type="arrow" id="2116905772017686026">
          <mxCell id="9050640926964965204" value="" style="edgeStyle=loopEdgeStyle;orthogonalloop=0;rounded=0;jettySize=auto;html=1" parent="1" connectable="" edge="1" vertex="" source="" target="">
            <mxGeometry x="" y="" width="" height="" relative="1" as="geometry">
              <mxPoint x="-3900" y="3860" as="sourcePoint"/>
              <mxPoint x="-3680" y="3860" as="targetPoint"/>
            </mxGeometry>
          </mxCell>
        </object>
        <object label="" type="arrow" id="5656652642715941238">
          <mxCell id="8778063001182554781" value="" style="edgeStyle=loopEdgeStyle;orthogonalloop=0;rounded=0;jettySize=auto;html=1" parent="1" connectable="" edge="1" vertex="" source="" target="">
            <mxGeometry x="" y="" width="" height="" relative="1" as="geometry">
              <mxPoint x="-3900" y="3960" as="sourcePoint"/>
              <mxPoint x="-3680" y="3960" as="targetPoint"/>
            </mxGeometry>
          </mxCell>
        </object>
        <object label="" type="arrow" id="745848767747685354">
          <mxCell id="6353971927505055404" value="" style="edgeStyle=loopEdgeStyle;orthogonalloop=0;rounded=0;jettySize=auto;html=1" parent="1" connectable="" edge="1" vertex="" source="" target="">
            <mxGeometry x="" y="" width="" height="" relative="1" as="geometry">
              <mxPoint x="-3900" y="4060" as="sourcePoint"/>
              <mxPoint x="-3680" y="4060" as="targetPoint"/>
            </mxGeometry>
          </mxCell>
        </object>
        <object label="" type="arrow" id="5927645009378887010">
          <mxCell id="7958326931942882655" value="" style="edgeStyle=loopEdgeStyle;orthogonalloop=0;rounded=0;jettySize=auto;html=1" parent="1" connectable="" edge="1" vertex="" source="" target="">
            <mxGeometry x="" y="" width="" height="" relative="1" as="geometry">
              <mxPoint x="-4740" y="3160" as="sourcePoint"/>
              <mxPoint x="-4500" y="3160" as="targetPoint"/>
            </mxGeometry>
          </mxCell>
        </object>
        <object label="" type="arrow" id="1827904501523836472">
          <mxCell id="4567859346508990860" value="" style="edgeStyle=loopEdgeStyle;orthogonalloop=0;rounded=0;jettySize=auto;html=1" parent="1" connectable="" edge="1" vertex="" source="" target="">
            <mxGeometry x="" y="" width="" height="" relative="1" as="geometry">
              <mxPoint x="-4740" y="3360" as="sourcePoint"/>
              <mxPoint x="-4500" y="3360" as="targetPoint"/>
            </mxGeometry>
          </mxCell>
        </object>
        <object label="" type="arrow" id="8636326618939446988">
          <mxCell id="3645236378857176283" value="" style="edgeStyle=loopEdgeStyle;orthogonalloop=0;rounded=0;jettySize=auto;html=1" parent="1" connectable="" edge="1" vertex="" source="" target="">
            <mxGeometry x="" y="" width="" height="" relative="1" as="geometry">
              <mxPoint x="-4740" y="3760" as="sourcePoint"/>
              <mxPoint x="-4500" y="3760" as="targetPoint"/>
            </mxGeometry>
          </mxCell>
        </object>
        <object label="" type="arrow" id="4395108098305520350">
          <mxCell id="2767911445310252631" value="" style="edgeStyle=loopEdgeStyle;orthogonalloop=0;rounded=0;jettySize=auto;html=1" parent="1" connectable="" edge="1" vertex="" source="" target="">
            <mxGeometry x="" y="" width="" height="" relative="1" as="geometry">
              <mxPoint x="-4740" y="3860" as="sourcePoint"/>
              <mxPoint x="-4500" y="3860" as="targetPoint"/>
            </mxGeometry>
          </mxCell>
        </object>
        <object label="" type="arrow" id="6837075202610831008">
          <mxCell id="3982037669469075380" value="" style="edgeStyle=loopEdgeStyle;orthogonalloop=0;rounded=0;jettySize=auto;html=1" parent="1" connectable="" edge="1" vertex="" source="" target="">
            <mxGeometry x="" y="" width="" height="" relative="1" as="geometry">
              <mxPoint x="-4740" y="3960" as="sourcePoint"/>
              <mxPoint x="-4500" y="3960" as="targetPoint"/>
            </mxGeometry>
          </mxCell>
        </object>
        <object label="" type="arrow" id="1734048491273905808">
          <mxCell id="8439985160181419160" value="" style="edgeStyle=loopEdgeStyle;orthogonalloop=0;rounded=0;jettySize=auto;html=1" parent="1" connectable="" edge="1" vertex="" source="" target="">
            <mxGeometry x="" y="" width="" height="" relative="1" as="geometry">
              <mxPoint x="-4740" y="4060" as="sourcePoint"/>
              <mxPoint x="-4500" y="4060" as="targetPoint"/>
            </mxGeometry>
          </mxCell>
        </object>
        <object label="" type="arrow" id="3155425693866746022">
          <mxCell id="6620900655454245353" value="" style="edgeStyle=loopEdgeStyle;orthogonalloop=0;rounded=0;jettySize=auto;html=1" parent="1" connectable="" edge="1" vertex="" source="" target="">
            <mxGeometry x="" y="" width="" height="" relative="1" as="geometry">
              <mxPoint x="-3520" y="3760" as="sourcePoint"/>
              <mxPoint x="-3280" y="3760" as="targetPoint"/>
            </mxGeometry>
          </mxCell>
        </object>
        <object label="" type="arrow" id="5172721222743911748">
          <mxCell id="558537143315741627" value="" style="edgeStyle=loopEdgeStyle;orthogonalloop=0;rounded=0;jettySize=auto;html=1" parent="1" connectable="" edge="1" vertex="" source="" target="">
            <mxGeometry x="" y="" width="" height="" relative="1" as="geometry">
              <mxPoint x="-3520" y="3860" as="sourcePoint"/>
              <mxPoint x="-3280" y="3860" as="targetPoint"/>
            </mxGeometry>
          </mxCell>
        </object>
        <object label="" type="arrow" id="5894913770855811816">
          <mxCell id="1467985224420351496" value="" style="edgeStyle=loopEdgeStyle;orthogonalloop=0;rounded=0;jettySize=auto;html=1" parent="1" connectable="" edge="1" vertex="" source="" target="">
            <mxGeometry x="" y="" width="" height="" relative="1" as="geometry">
              <mxPoint x="-3520" y="3960" as="sourcePoint"/>
              <mxPoint x="-3280" y="3960" as="targetPoint"/>
            </mxGeometry>
          </mxCell>
        </object>
        <object label="" type="arrow" id="5221087955036571087">
          <mxCell id="7746654409472358178" value="" style="edgeStyle=loopEdgeStyle;orthogonalloop=0;rounded=0;jettySize=auto;html=1" parent="1" connectable="" edge="1" vertex="" source="" target="">
            <mxGeometry x="" y="" width="" height="" relative="1" as="geometry">
              <mxPoint x="-3520" y="4060" as="sourcePoint"/>
              <mxPoint x="-3280" y="4060" as="targetPoint"/>
            </mxGeometry>
          </mxCell>
        </object>
        <object label="" type="arrow" id="8749546062357890349">
          <mxCell id="2269289752464614504" value="" style="edgeStyle=loopEdgeStyle;orthogonalloop=0;rounded=0;jettySize=auto;html=1" parent="1" connectable="" edge="1" vertex="" source="" target="">
            <mxGeometry x="" y="" width="" height="" relative="1" as="geometry">
              <mxPoint x="-5140" y="3360" as="sourcePoint"/>
              <mxPoint x="-4900" y="3360" as="targetPoint"/>
            </mxGeometry>
          </mxCell>
        </object>
      </root>
    </mxGraphModel>
  </diagram>
</mxfile>
